<?xml version="1.0" encoding="utf-8"?>
<!-- Generator: Adobe Illustrator 27.8.1, SVG Export Plug-In . SVG Version: 6.00 Build 0)  -->
<svg version="1.0" id="Warstwa_1" xmlns="http://www.w3.org/2000/svg" xmlns:xlink="http://www.w3.org/1999/xlink" x="0px" y="0px"
	 viewBox="0 0 283.5 141.7" enable-background="new 0 0 283.5 141.7" xml:space="preserve">
<g>
	<defs>
		<polyline id="SVGID_1_" points="305.6,172.1 295.8,2.7 -27.2,21.4 -17.3,190.9 305.6,172.1 		"/>
	</defs>
	<clipPath id="SVGID_00000031890410180863093030000017735727748934308744_">
		<use xlink:href="#SVGID_1_"  overflow="visible"/>
	</clipPath>
	<polyline clip-path="url(#SVGID_00000031890410180863093030000017735727748934308744_)" fill="#FFFFFF" points="107.5,134.6 
		108.9,134.1 110.3,133.7 111.7,133.2 113,132.8 114.2,132.3 115.4,131.9 116.6,131.5 117.7,131.2 118.8,130.8 119.9,130.4 
		120.9,130.1 121.1,130 121.1,130 121.1,130 121.1,130.1 121.2,130.1 121.2,130.3 121.8,132 123,135.5 123,135.6 123,135.7 
		123.1,135.8 123.1,135.9 123.4,136.3 123.6,136.6 124,137 124.4,137.2 124.8,137.4 125.3,137.5 125.7,137.5 126.1,137.5 
		126.5,137.4 126.6,137.4 126.7,137.3 127.1,137.2 128.6,136.7 131.5,135.7 137.3,133.8 149,129.8 172.3,121.9 265.6,90.4 
		277.3,86.5 278,86.2 278.2,86.2 278.3,86.1 278.3,86.1 278.3,86.1 278.4,86.1 278.5,86.1 278.9,85.9 279.2,85.6 279.5,85.3 
		279.8,85 280,84.6 280.1,84.2 280.2,83.8 280.2,83.3 280.1,82.9 280.1,82.7 280.1,82.6 280,82.6 280,82.5 279.9,82.3 279.7,81.7 
		278.2,77 271.9,58.5 270.3,53.9 270,52.7 269.8,52.4 269.8,52.4 269.8,52.3 269.8,52.1 269.6,51.8 269.3,51.4 269,51.2 268.6,50.9 
		268.2,50.7 267.8,50.6 267.3,50.5 266.9,50.5 266.5,50.6 266.4,50.6 266.4,50.6 266.4,50.6 266.3,50.7 265.6,50.9 264.1,51.4 
		252.5,55.3 159.1,86.8 135.8,94.7 124.1,98.7 118.3,100.6 115.4,101.6 114.6,101.9 114.6,101.9 114.6,101.9 114.6,101.9 114.2,102 
		113.8,102.3 113.5,102.5 113.2,102.9 113,103.3 112.8,103.7 112.7,104.1 112.7,104.6 112.7,105 112.8,105.4 112.8,105.4 
		112.8,105.4 112.8,105.4 112.6,105.5 112.3,105.6 111.8,105.7 110.8,106.1 109.7,106.5 109.4,106.6 109.4,106.6 109.3,106.5 
		109.2,106.5 108.7,106.2 106.7,105.2 106.2,105 106.1,104.9 106.1,104.9 106.1,104.9 106.2,104.8 106.3,104.6 106.6,103.9 
		107.3,102.6 107.5,102.2 107.6,101.7 107.6,101.3 107.6,100.9 107.5,100.5 107.3,100.1 107.1,99.7 106.8,99.4 106.5,99.1 
		106.1,98.8 106.1,98.8 106.1,98.8 106,98.8 106,98.8 104.8,98.2 102.4,97 97.6,94.7 78.6,85.3 76.2,84.1 75.6,83.8 75.3,83.7 
		75.2,83.6 75.1,83.6 75.1,83.6 75,83.5 74.6,83.4 74.1,83.3 73.7,83.3 73.3,83.3 72.9,83.4 72.5,83.6 72.1,83.9 71.8,84.2 
		71.5,84.5 71.3,84.9 71.1,85.4 70,87.4 69.8,88 69.7,88.1 69.7,88.1 69.7,88.2 69.7,88.2 69.4,88.1 68.3,87.5 67.2,87 66.7,86.7 
		66.4,86.6 66.3,86.5 66.2,86.5 66.2,86.5 66.2,86.5 66.6,85.6 66.8,85.2 66.8,85.1 66.9,84.9 67.1,84.5 67.1,84.1 67.1,83.7 
		67.1,83.2 66.9,82.8 66.7,82.5 66.5,82.1 66.2,81.8 65.9,81.5 65.7,81.4 65.6,81.4 65.6,81.4 65.6,81.4 65.6,81.4 65.5,81.4 
		63.7,80.4 56.2,76.8 41.4,69.4 26.5,62 19.1,58.4 17.2,57.4 17.1,57.4 16.9,57.3 16.5,57.2 16.1,57.1 15.6,57.2 15.2,57.3 
		14.7,57.4 14.3,57.7 14,57.9 13.7,58.3 13.6,58.4 13.5,58.5 13.5,58.6 13.4,58.7 13.3,58.9 11.6,62.3 8.3,69.1 5,75.8 3.3,79.2 
		2.9,80.1 2.7,80.5 2.6,80.6 2.6,80.6 2.6,80.7 2.5,80.9 2.4,81.2 2.3,81.7 2.3,82.1 2.3,82.5 2.5,82.9 2.6,83.2 2.9,83.6 3.1,83.9 
		3.5,84.2 3.7,84.3 3.7,84.3 3.8,84.3 4,84.4 5,84.9 19.9,92.3 49.9,107.2 51.8,108.1 52.3,108.3 52.5,108.5 52.5,108.5 52.5,108.5 
		52.6,108.5 52.8,108.6 53.2,108.6 53.6,108.6 54.1,108.6 54.5,108.4 54.9,108.2 55.3,107.9 55.6,107.6 55.9,107.3 55.9,107.1 
		56,107.1 56,107.1 56,107 56,106.9 56.2,106.6 57.7,103.5 60.8,97.3 60.9,97.1 60.9,97.1 60.9,97 61,97 61.1,97.1 61.4,97.3 
		61.9,97.5 63,98 64.1,98.6 64.3,98.7 64.4,98.7 64.4,98.8 64.3,99 64,99.6 62.7,102.3 57.3,113.2 55.9,116 55.8,116.3 55.7,116.5 
		55.7,116.5 55.6,116.6 55.5,116.8 55.4,117.2 55.4,117.6 55.4,118.1 55.5,118.5 55.6,118.9 55.8,119.3 56.1,119.7 56.4,119.9 
		56.8,120.2 56.8,120.2 56.9,120.3 56.9,120.3 56.9,120.3 57,120.3 57.2,120.4 59.6,121.6 78.6,131 83.4,133.4 85.8,134.5 
		86.9,135.1 87.5,135.4 87.8,135.6 87.9,135.6 88.2,135.7 88.6,135.8 89.1,135.9 89.5,135.8 90,135.7 90.4,135.5 90.8,135.3 
		91.1,135 91.4,134.7 91.6,134.3 93.4,130.6 94.3,128.7 94.5,128.2 95,128.4 95.5,128.7 96.5,129.2 97.5,129.7 98.6,130.2 
		99.7,130.8 100.9,131.3 102.1,131.9 103.4,132.6 104.7,133.2 106.1,133.9 107.5,134.6 	"/>
</g>
</svg>
